<svg xmlns="http://www.w3.org/2000/svg" xmlns:xlink="http://www.w3.org/1999/xlink" viewBox="0 0 192.48 173.21"><defs><style>.cls-1{opacity:0.39;fill:url(#radial-gradient);}.cls-2{fill:url(#Degradado_sin_nombre_2);}</style><radialGradient id="radial-gradient" cx="109.56" cy="83.97" r="96.56" gradientUnits="userSpaceOnUse"><stop offset="0" stop-color="#828282"/><stop offset="0.3" stop-color="#848484" stop-opacity="0.98"/><stop offset="0.47" stop-color="#8b8b8b" stop-opacity="0.92"/><stop offset="0.6" stop-color="#969697" stop-opacity="0.81"/><stop offset="0.72" stop-color="#a6a6a7" stop-opacity="0.66"/><stop offset="0.83" stop-color="#bbbcbd" stop-opacity="0.47"/><stop offset="0.92" stop-color="#d4d5d7" stop-opacity="0.23"/><stop offset="1" stop-color="#eceef0" stop-opacity="0"/></radialGradient><linearGradient id="Degradado_sin_nombre_2" y1="86.61" x2="192.48" y2="86.61" gradientUnits="userSpaceOnUse"><stop offset="0" stop-color="#ffc71f"/><stop offset="1" stop-color="#ff056c"/></linearGradient></defs><title>2</title><g id="Layer_2" data-name="Layer 2"><g id="Layer_1-2" data-name="Layer 1"><path class="cls-1" d="M65.87,124.73l46,46a11.86,11.86,0,0,0,4.16,0c33.67-5.46,70-32.81,73.62-75.71.1-1.14-.19.34-.24-.8l-36-35.95Z"/><path class="cls-2" d="M105.88,0A85.82,85.82,0,0,0,53.22,17.84L56,21.49a81.19,81.19,0,0,1,49.86-16.9,82,82,0,0,1,0,164c-22.64,0-45.1-10.08-60.56-26.63H6.88V128.31C33.65,103.7,53,85.9,53,70.13c0-10.55-5.91-16.85-15.81-16.85-7.62,0-13.52,5-18,9.45L6.42,50c11-11.15,20.65-15.34,34.9-15.34,21.22,0,35.47,13.56,35.47,33.74,0,16.95-16.5,36-30.88,50.72l-4.59,4.7,6.52-.82a174.18,174.18,0,0,1,18.08-1.37H82v22.66h4.59V117H65.92c-3.34,0-8,.31-12.34.72C67.35,103.15,81.39,85.21,81.39,68.4c0-11.28-3.91-20.92-11.3-27.88S52.88,30.06,41.32,30.06c-16.15,0-27.31,5.16-39.79,18.4L0,50.08,19.14,69.22l1.63-1.62c5.31-5.32,10.22-9.73,16.39-9.73,7.34,0,11.22,4.24,11.22,12.26,0,13.77-19.73,31.92-44.71,54.9L2.29,126.3v20.28H43.41A86.6,86.6,0,1,0,105.88,0Z"/></g></g></svg>