<svg xmlns="http://www.w3.org/2000/svg" xmlns:xlink="http://www.w3.org/1999/xlink" viewBox="0 0 110.64 110.64"><defs><style>.cls-1{fill:#fff;}.cls-2{fill:url(#radial-gradient);}.cls-3{fill:#eceef0;}.cls-4{fill:none;stroke:#00cfff;stroke-miterlimit:10;stroke-width:3px;}</style><radialGradient id="radial-gradient" cx="9.73" cy="3.57" r="159.87" gradientUnits="userSpaceOnUse"><stop offset="0" stop-color="#f6f6f7"/><stop offset="0.48" stop-color="#fafafb"/><stop offset="0.72" stop-color="#fff"/></radialGradient></defs><title>Asset 6</title><g id="Layer_2" data-name="Layer 2"><g id="Layer_1-2" data-name="Layer 1"><path class="cls-1" d="M110.64,55.32A55.32,55.32,0,1,1,55.32,0,55.32,55.32,0,0,1,110.64,55.32Z"/><path class="cls-2" d="M110.64,55.32A55.13,55.13,0,0,0,96.75,18.66,55.32,55.32,0,0,0,15.31,93.52a55.32,55.32,0,0,0,95.33-38.2Z"/><path class="cls-3" d="M105.05,31.06A55.33,55.33,0,0,1,9.8,86.15a55,55,0,0,0,5.51,7.37,55.33,55.33,0,0,0,89.74-62.46Z"/><path class="cls-4" d="M80.19,52A24.2,24.2,0,0,1,77.6,63,24.49,24.49,0,0,1,55.7,76.49a24.11,24.11,0,0,1-11-2.59L28.32,79.38,33.79,63A24.2,24.2,0,0,1,31.2,52,24.5,24.5,0,0,1,44.74,30.1a24.11,24.11,0,0,1,11-2.59h1.44a24.43,24.43,0,0,1,23,23.05Z"/></g></g></svg>