<svg xmlns="http://www.w3.org/2000/svg" xmlns:xlink="http://www.w3.org/1999/xlink" viewBox="0 0 189.63 173.21"><defs><style>.cls-1{opacity:0.39;fill:url(#radial-gradient);}.cls-2{fill:url(#Degradado_sin_nombre_2);}</style><radialGradient id="radial-gradient" cx="106.71" cy="83.97" r="96.56" gradientUnits="userSpaceOnUse"><stop offset="0" stop-color="#828282"/><stop offset="0.3" stop-color="#848484" stop-opacity="0.98"/><stop offset="0.47" stop-color="#8b8b8b" stop-opacity="0.92"/><stop offset="0.6" stop-color="#969697" stop-opacity="0.81"/><stop offset="0.72" stop-color="#a6a6a7" stop-opacity="0.66"/><stop offset="0.83" stop-color="#bbbcbd" stop-opacity="0.47"/><stop offset="0.92" stop-color="#d4d5d7" stop-opacity="0.23"/><stop offset="1" stop-color="#eceef0" stop-opacity="0"/></radialGradient><linearGradient id="Degradado_sin_nombre_2" y1="86.61" x2="189.63" y2="86.61" gradientUnits="userSpaceOnUse"><stop offset="0" stop-color="#ffc71f"/><stop offset="1" stop-color="#ff056c"/></linearGradient></defs><title>Asset 9</title><g id="Layer_2" data-name="Layer 2"><g id="Layer_1-2" data-name="Layer 1"><path class="cls-1" d="M63,124.73l46,46a11.81,11.81,0,0,0,4.15,0c33.68-5.46,70-32.81,73.63-75.71.1-1.14-.19.34-.25-.8l-36-35.95Z"/><path class="cls-2" d="M103,0A85.82,85.82,0,0,0,50.35,17.85l2.8,3.64A81.28,81.28,0,0,1,103,4.59a82,82,0,0,1,0,164c-21.7,0-43-9.31-58.42-24.55H42.08c-15.42,0-27.89-4.65-36.21-13.46l11-15.15c7.17,6,15,9.29,22.14,9.29,11.42,0,18.24-4.74,18.24-12.69,0-10.87-7.47-15.15-27.38-15.45V80.37C40.7,80.14,53.73,78,53.73,65.63c0-7.85-5-12.35-13.73-12.35-7.39,0-12.79,2.93-19.1,8.07l-12-14.46c10.51-8.34,20.87-12.23,32.44-12.23,23.52,0,37.56,10.73,37.56,28.71,0,9.72-5.34,16.8-16.31,21.64l-1.37.6V89.5l1.63.5c12.58,3.84,19.51,12.42,19.51,24.14H87c0-12.47-6.5-21.91-18.42-27,9.93-5.57,15-13.56,15-23.81s-4.06-19-11.74-24.8C64.47,33,54,30.06,41.38,30.06c-13.18,0-25.33,4.83-37.16,14.75L2.47,46.27,20.31,67.84l1.77-1.5c6.46-5.49,11.23-8.47,17.92-8.47,3.92,0,9.14.81,9.14,7.76,0,5-2.57,10.17-21.62,10.17H25.23v25.39h2.29c25.08,0,25.08,6,25.08,10.87,0,7-8.55,8.1-13.64,8.1-6.68,0-14.13-3.48-21-9.79l-1.9-1.75L0,130.89l1.18,1.38c9.19,10.72,23.33,16.39,40.9,16.39h.53A86.61,86.61,0,1,0,103,0Z"/></g></g></svg>