<svg xmlns="http://www.w3.org/2000/svg" xmlns:xlink="http://www.w3.org/1999/xlink" viewBox="0 0 188.18 173.21"><defs><style>.cls-1{opacity:0.39;fill:url(#radial-gradient);}.cls-2{fill:url(#Degradado_sin_nombre_2);}</style><radialGradient id="radial-gradient" cx="104.98" cy="83.97" r="96.56" gradientUnits="userSpaceOnUse"><stop offset="0" stop-color="#828282"/><stop offset="0.3" stop-color="#848484" stop-opacity="0.98"/><stop offset="0.47" stop-color="#8b8b8b" stop-opacity="0.92"/><stop offset="0.6" stop-color="#969697" stop-opacity="0.81"/><stop offset="0.72" stop-color="#a6a6a7" stop-opacity="0.66"/><stop offset="0.83" stop-color="#bbbcbd" stop-opacity="0.47"/><stop offset="0.92" stop-color="#d4d5d7" stop-opacity="0.23"/><stop offset="1" stop-color="#eceef0" stop-opacity="0"/></radialGradient><linearGradient id="Degradado_sin_nombre_2" y1="86.61" x2="188.18" y2="86.61" gradientUnits="userSpaceOnUse"><stop offset="0" stop-color="#ffc71f"/><stop offset="1" stop-color="#ff056c"/></linearGradient></defs><title>Asset 8</title><g id="Layer_2" data-name="Layer 2"><g id="Layer_1-2" data-name="Layer 1"><path class="cls-1" d="M61.29,124.73l46,46a11.86,11.86,0,0,0,4.16,0c33.67-5.46,70-32.81,73.63-75.71.09-1.14-.2.34-.25-.8l-36-35.95Z"/><path class="cls-2" d="M101.58,0A86.62,86.62,0,0,0,45.5,20.61l3,3.5A82,82,0,1,1,41.08,142H4.59V122.67H28.16V61.25H7.37V47.06c11.12-2.3,18.91-5.28,27.11-10.32H53.36v85.93h22v-4.59H58V32.14H33.17l-.56.35c-8.34,5.22-16.19,8.14-28,10.44l-1.86.36V65.84H23.56v52.24H0v28.5H39.11A86.6,86.6,0,1,0,101.58,0Z"/></g></g></svg>