<svg xmlns="http://www.w3.org/2000/svg" xmlns:xlink="http://www.w3.org/1999/xlink" viewBox="0 0 110.64 110.64"><defs><style>.cls-1{fill:#fff;}.cls-2{fill:url(#radial-gradient);}.cls-3{fill:#eceef0;}.cls-4{fill:none;stroke:#00cfff;stroke-miterlimit:10;stroke-width:4px;}</style><radialGradient id="radial-gradient" cx="9.73" cy="3.57" r="159.87" gradientUnits="userSpaceOnUse"><stop offset="0" stop-color="#f6f6f7"/><stop offset="0.48" stop-color="#fafafb"/><stop offset="0.72" stop-color="#fff"/></radialGradient></defs><title>Asset 3</title><g id="Layer_2" data-name="Layer 2"><g id="Layer_1-2" data-name="Layer 1"><path class="cls-1" d="M110.64,55.32A55.32,55.32,0,1,1,55.32,0,55.32,55.32,0,0,1,110.64,55.32Z"/><path class="cls-2" d="M110.64,55.32A55.13,55.13,0,0,0,96.75,18.66,55.32,55.32,0,0,0,15.31,93.52a55.32,55.32,0,0,0,95.33-38.2Z"/><path class="cls-3" d="M105.05,31.06A55.33,55.33,0,0,1,9.8,86.15a55,55,0,0,0,5.51,7.37,55.33,55.33,0,0,0,89.74-62.46Z"/><path class="cls-4" d="M32.28,33h40a5,5,0,0,1,5,5V68a5,5,0,0,1-5,5h-40a5,5,0,0,1-5-5V38A5,5,0,0,1,32.28,33Z"/><polyline class="cls-4" points="77.28 38.01 52.28 55.51 27.28 38.01"/></g></g></svg>