<svg xmlns="http://www.w3.org/2000/svg" xmlns:xlink="http://www.w3.org/1999/xlink" viewBox="0 0 110.64 110.64"><defs><style>.cls-1{fill:#fff;}.cls-2{fill:url(#radial-gradient);}.cls-3{fill:#eceef0;}.cls-4{fill:none;stroke:#00cfff;stroke-miterlimit:10;stroke-width:3.43px;}</style><radialGradient id="radial-gradient" cx="9.73" cy="3.57" r="159.87" gradientUnits="userSpaceOnUse"><stop offset="0" stop-color="#f6f6f7"/><stop offset="0.48" stop-color="#fafafb"/><stop offset="0.72" stop-color="#fff"/></radialGradient></defs><title>Asset 5</title><g id="Layer_2" data-name="Layer 2"><g id="Layer_1-2" data-name="Layer 1"><circle class="cls-1" cx="55.32" cy="55.32" r="55.32"/><path class="cls-2" d="M110.64,55.32A55.11,55.11,0,0,0,96.75,18.66,55.32,55.32,0,0,0,15.31,93.52a55.32,55.32,0,0,0,95.33-38.2Z"/><path class="cls-3" d="M105,31.06A55.33,55.33,0,0,1,9.8,86.15a55.51,55.51,0,0,0,5.51,7.37A55.33,55.33,0,0,0,105,31.06Z"/><path class="cls-4" d="M80.11,59c0,2.21-2.34,4-5.22,4H43.55L33.11,71V39c0-2.21,2.34-4,5.22-4H74.88c2.88,0,5.22,1.79,5.22,4Z"/></g></g></svg>