<svg xmlns="http://www.w3.org/2000/svg" viewBox="0 0 39 30.3"><defs><style>.cls-1{fill:#4d4d4d;}</style></defs><title>dark coma</title><g id="Layer_2" data-name="Layer 2"><g id="Layer_1-2" data-name="Layer 1"><path class="cls-1" d="M8,12c.48-3,4.22-6.18,7.14-6.25a.78.78,0,0,0,.54-.2.55.55,0,0,0,.34-.34c1-1.91.48-3.4-1.22-4.63-2-1.42-5.1,0-6.66,1.3C4.23,5.15.22,10.79.42,16.16A22.46,22.46,0,0,0,.9,26.83,5,5,0,0,0,5.59,30c2,.13,6.25.75,8.09-.48s2-3.6,2.17-5.64c.2-2.24.82-6.46-1.09-8.22S7.42,15.82,8,12Z"/><path class="cls-1" d="M30.46,12c.48-3,4.22-6.18,7.14-6.25a.81.81,0,0,0,.55-.2.6.6,0,0,0,.34-.34c1-1.91.47-3.4-1.23-4.63-2-1.42-5.1,0-6.66,1.3-3.94,3.26-8,8.9-7.75,14.27a22.46,22.46,0,0,0,.48,10.67A5,5,0,0,0,28,30c2,.13,6.25.75,8.09-.48s2-3.6,2.17-5.64c.21-2.24.82-6.46-1.09-8.22S29.79,15.82,30.46,12Z"/></g></g></svg>