<svg xmlns="http://www.w3.org/2000/svg" viewBox="0 0 48.82 31.15"><defs><style>.cls-1{fill:#91969b;}</style></defs><title>Asset 5</title><g id="Layer_2" data-name="Layer 2"><g id="Layer_1-2" data-name="Layer 1"><path class="cls-1" d="M3.2,31.15H45.62a3.22,3.22,0,0,0,3.2-3.24V3.24A3.22,3.22,0,0,0,45.62,0H3.2A3.22,3.22,0,0,0,0,3.24V27.91a3.22,3.22,0,0,0,3.2,3.24ZM1.6,3.24A1.62,1.62,0,0,1,3.2,1.6H45.62a1.62,1.62,0,0,1,1.6,1.64V27.91a1.62,1.62,0,0,1-1.6,1.64H3.2a1.62,1.62,0,0,1-1.6-1.64Zm0,0"/><rect class="cls-1" x="10.13" y="10.63" width="2.15" height="1.9"/><rect class="cls-1" x="4.75" y="10.63" width="2.15" height="1.9"/><path class="cls-1" d="M6.9,14.95V13.33h-2a2.38,2.38,0,0,0,2,1.62Zm0,0"/><rect class="cls-1" x="7.7" y="13.33" width="1.63" height="1.65"/><path class="cls-1" d="M12.14,13.33h-2v1.62a2.38,2.38,0,0,0,2-1.62Zm0,0"/><path class="cls-1" d="M9.33,9.84H12.2A2.39,2.39,0,0,0,9.88,8H7.7v4.54H9.33V9.84Zm0,0"/><path class="cls-1" d="M6.9,8A2.39,2.39,0,0,0,4.83,9.84H6.9Zm0,0"/><path class="cls-1" d="M6.26,26.64l-1-1.7H4.75v2.44h.48V25.64l1,1.73h.51V24.94H6.26Zm0,0"/><path class="cls-1" d="M8.65,27.12c0-.08,0-.15,0-.21v-.83a.44.44,0,0,0-.23-.44,1.14,1.14,0,0,0-.52-.12.78.78,0,0,0-.64.24.67.67,0,0,0-.13.39h.45A.31.31,0,0,1,7.63,26a.3.3,0,0,1,.24-.08.47.47,0,0,1,.23,0,.16.16,0,0,1,.08.15.14.14,0,0,1-.1.14l-.19,0-.16,0a1.09,1.09,0,0,0-.42.12.57.57,0,0,0-.1.88.62.62,0,0,0,.41.14A.69.69,0,0,0,8,27.35a1.06,1.06,0,0,0,.22-.18v.11l0,.1h.52v-.07a.12.12,0,0,1-.07-.05.27.27,0,0,1,0-.13Zm-.47-.45A.38.38,0,0,1,8,27a.51.51,0,0,1-.29.09A.25.25,0,0,1,7.59,27a.2.2,0,0,1-.07-.17.21.21,0,0,1,.11-.2.87.87,0,0,1,.22-.07l.11,0,.13,0,.09,0Zm0,0"/><path class="cls-1" d="M11.52,25.74a.53.53,0,0,0-.21-.17.7.7,0,0,0-.24,0,.69.69,0,0,0-.32.07.57.57,0,0,0-.23.24.55.55,0,0,0-.16-.22.65.65,0,0,0-.69,0,1,1,0,0,0-.17.2v-.26H9v1.8h.48V26.29a.45.45,0,0,1,0-.22.28.28,0,0,1,.27-.13.24.24,0,0,1,.24.13.62.62,0,0,1,0,.23v1.07h.48V26.3a.54.54,0,0,1,0-.21.27.27,0,0,1,.27-.16.24.24,0,0,1,.23.12.42.42,0,0,1,0,.17v1.15h.48V26.24a1.53,1.53,0,0,0,0-.27.52.52,0,0,0-.1-.23Zm0,0"/><path class="cls-1" d="M13.7,26.25a.92.92,0,0,0-.14-.37.73.73,0,0,0-.31-.26,1,1,0,0,0-.42-.09.86.86,0,0,0-.64.25,1,1,0,0,0-.25.72.88.88,0,0,0,.27.72,1,1,0,0,0,.64.22.87.87,0,0,0,.68-.26.59.59,0,0,0,.17-.33h-.48a.45.45,0,0,1-.1.13.4.4,0,0,1-.26.08.48.48,0,0,1-.26-.07.41.41,0,0,1-.19-.38h1.31a2.16,2.16,0,0,0,0-.36Zm-1.29,0a.49.49,0,0,1,.12-.28.38.38,0,0,1,.28-.1.4.4,0,0,1,.28.1.38.38,0,0,1,.13.29Zm0,0"/><path class="cls-1" d="M17.6,26.94H16.38v-2h-.51v2.44H17.6Zm0,0"/><path class="cls-1" d="M19.38,27.12c0-.08,0-.15,0-.21v-.83a.44.44,0,0,0-.23-.44,1.15,1.15,0,0,0-.52-.12.78.78,0,0,0-.65.24.67.67,0,0,0-.13.39h.46a.31.31,0,0,1,.07-.17.3.3,0,0,1,.24-.08.48.48,0,0,1,.23,0,.16.16,0,0,1,.08.15.14.14,0,0,1-.1.14l-.19,0-.16,0a1.09,1.09,0,0,0-.42.12.57.57,0,0,0-.1.88.62.62,0,0,0,.41.14.7.7,0,0,0,.35-.09,1,1,0,0,0,.22-.18.66.66,0,0,0,0,.11.31.31,0,0,0,0,.1h.51v-.07a.14.14,0,0,1-.07-.05.26.26,0,0,1,0-.13Zm-.47-.45a.38.38,0,0,1-.14.33.51.51,0,0,1-.28.09.25.25,0,0,1-.17-.06.2.2,0,0,1-.07-.17.21.21,0,0,1,.11-.2.82.82,0,0,1,.22-.07l.11,0,.12,0,.1,0Zm0,0"/><path class="cls-1" d="M20.77,26.29a3.35,3.35,0,0,1-.49-.13A.12.12,0,0,1,20.2,26a.13.13,0,0,1,.07-.11.37.37,0,0,1,.22,0,.33.33,0,0,1,.26.1.24.24,0,0,1,0,.14h.47a.57.57,0,0,0-.24-.47,1,1,0,0,0-.55-.14.79.79,0,0,0-.55.18.55.55,0,0,0-.19.43.41.41,0,0,0,.12.32,1,1,0,0,0,.43.19,2.25,2.25,0,0,1,.49.14.12.12,0,0,1,.07.12.13.13,0,0,1-.08.12.54.54,0,0,1-.22,0,.44.44,0,0,1-.33-.1.35.35,0,0,1-.07-.18h-.48a.57.57,0,0,0,.2.46.92.92,0,0,0,.63.18,1,1,0,0,0,.62-.17.55.55,0,0,0,.2-.44.47.47,0,0,0-.14-.34.92.92,0,0,0-.42-.2Zm0,0"/><path class="cls-1" d="M22.2,25.09h-.46v.5h-.25v.33h.25V27a.34.34,0,0,0,.08.25.61.61,0,0,0,.46.12h.22V27h-.09a.34.34,0,0,1-.17,0,.23.23,0,0,1,0-.14v-1h.29v-.33H22.2Zm0,0"/><path class="cls-1" d="M24.74,25.53a.58.58,0,0,0-.37.11.86.86,0,0,0-.17.2v-.26h-.45v1.8h.47v-1a.74.74,0,0,1,0-.28.33.33,0,0,1,.33-.2.27.27,0,0,1,.26.14.5.5,0,0,1,0,.22v1.1h.48V26.16a.59.59,0,0,0-.18-.48.68.68,0,0,0-.46-.15Zm0,0"/><path class="cls-1" d="M25.88,25.77a.7.7,0,0,0-.13.39h.46a.36.36,0,0,1,.07-.17.31.31,0,0,1,.24-.08.48.48,0,0,1,.23,0,.16.16,0,0,1,.07.15.14.14,0,0,1-.1.14l-.19,0-.16,0a1.05,1.05,0,0,0-.41.12.51.51,0,0,0-.26.48.5.5,0,0,0,.16.4.61.61,0,0,0,.41.14.68.68,0,0,0,.35-.09,1,1,0,0,0,.23-.18s0,.08,0,.11l0,.1h.51v-.07a.13.13,0,0,1-.07-.05.26.26,0,0,1,0-.12c0-.08,0-.15,0-.21v-.83a.45.45,0,0,0-.23-.44,1.15,1.15,0,0,0-.53-.12.78.78,0,0,0-.64.24Zm.93.9a.37.37,0,0,1-.14.33.5.5,0,0,1-.28.09.27.27,0,0,1-.17-.06.25.25,0,0,1,0-.37.83.83,0,0,1,.22-.07l.11,0,.12,0,.09,0Zm0,0"/><path class="cls-1" d="M28.17,26.29a.52.52,0,0,1,0-.22.28.28,0,0,1,.27-.13.23.23,0,0,1,.23.13.54.54,0,0,1,0,.23v1.07h.48V26.3a.52.52,0,0,1,0-.21.28.28,0,0,1,.27-.16.23.23,0,0,1,.23.12.35.35,0,0,1,0,.17v1.15h.48V26.24a1.5,1.5,0,0,0,0-.27.5.5,0,0,0-.1-.23.57.57,0,0,0-.21-.16.69.69,0,0,0-.24,0,.71.71,0,0,0-.33.07.62.62,0,0,0-.23.23.53.53,0,0,0-.15-.21.55.55,0,0,0-.33-.09.56.56,0,0,0-.36.11.76.76,0,0,0-.17.2v-.26h-.46v1.8h.48Zm0,0"/><path class="cls-1" d="M32.34,26.25a.94.94,0,0,0-.14-.37.72.72,0,0,0-.31-.26,1,1,0,0,0-.42-.09.86.86,0,0,0-.65.25,1,1,0,0,0-.25.72.88.88,0,0,0,.27.72,1,1,0,0,0,.64.22.87.87,0,0,0,.68-.26.59.59,0,0,0,.17-.33h-.48a.47.47,0,0,1-.1.13.4.4,0,0,1-.26.08.49.49,0,0,1-.26-.07.42.42,0,0,1-.19-.38h1.31a2.31,2.31,0,0,0,0-.36Zm-1.29,0a.51.51,0,0,1,.13-.28.39.39,0,0,1,.28-.1.4.4,0,0,1,.28.1.38.38,0,0,1,.13.29Zm0,0"/><path class="cls-1" d="M5.35,21.77l.59-1,.58,1h1.1L6.47,20,7.57,18.4h-1l-.55,1-.56-1H4.33l1.1,1.66L4.28,21.77Zm0,0"/><path class="cls-1" d="M10,21.77h1.1L10,20,11.1,18.4h-1l-.55,1-.56-1H7.86L9,20.06,7.81,21.77H8.88l.59-1Zm0,0"/><path class="cls-1" d="M12.49,20.06l-1.15,1.71h1.07l.59-1,.58,1h1.1L13.52,20l1.11-1.65h-1l-.55,1-.56-1H11.39Zm0,0"/><path class="cls-1" d="M17.7,21.77l.59-1,.58,1H20L18.81,20l1.11-1.65h-1l-.55,1-.57-1H16.68l1.1,1.66-1.15,1.71Zm0,0"/><path class="cls-1" d="M21.23,21.77l.59-1,.58,1h1.1L22.34,20l1.11-1.65h-1l-.55,1-.56-1H20.2l1.1,1.66-1.15,1.71Zm0,0"/><path class="cls-1" d="M24.76,21.77l.59-1,.58,1H27L25.87,20,27,18.4h-1l-.55,1-.57-1H23.73l1.1,1.66-1.15,1.71Zm0,0"/><path class="cls-1" d="M30,21.77l.59-1,.58,1h1.1L31.16,20l1.11-1.65h-1l-.55,1-.57-1H29l1.1,1.66L29,21.77Zm0,0"/><path class="cls-1" d="M35.8,18.4H34.75l-.55,1-.56-1H32.55l1.1,1.66L32.5,21.77h1.08l.58-1,.58,1h1.1L34.69,20Zm0,0"/><path class="cls-1" d="M39.33,18.4h-1l-.55,1-.57-1H36.08l1.1,1.66L36,21.77H37.1l.59-1,.58,1h1.1L38.22,20Zm0,0"/></g></g></svg>