<svg xmlns="http://www.w3.org/2000/svg" viewBox="0 0 39 30.3"><defs><style>.cls-1{opacity:0.64;}.cls-2{fill:#4d4d4d;}</style></defs><title>light coma</title><g id="Layer_2" data-name="Layer 2"><g id="Layer_1-2" data-name="Layer 1"><g class="cls-1"><path class="cls-2" d="M31,18.29c-.48,3-4.22,6.18-7.14,6.25a.78.78,0,0,0-.54.2.55.55,0,0,0-.34.34c-1,1.91-.48,3.4,1.22,4.63,2,1.42,5.1,0,6.66-1.3,3.94-3.26,8-8.9,7.75-14.27A22.46,22.46,0,0,0,38.1,3.47,5,5,0,0,0,33.41.27c-2-.13-6.25-.74-8.09.48s-2,3.6-2.17,5.64c-.2,2.24-.82,6.46,1.09,8.23S31.58,14.48,31,18.29Z"/><path class="cls-2" d="M8.53,18.29c-.47,3-4.21,6.18-7.13,6.25a.81.81,0,0,0-.55.2.6.6,0,0,0-.34.34c-1,1.91-.47,3.4,1.23,4.63,2,1.42,5.1,0,6.66-1.3,3.94-3.26,8-8.9,7.75-14.27a22.46,22.46,0,0,0-.48-10.67A5,5,0,0,0,11,.27c-2-.13-6.25-.74-8.09.48S.92,4.35.72,6.39C.51,8.63-.1,12.85,1.81,14.62S9.21,14.48,8.53,18.29Z"/></g></g></g></svg>