<svg xmlns="http://www.w3.org/2000/svg" viewBox="0 0 83.34 57.47"><defs><style>.cls-1{fill:#e7e8e3;}.cls-2{fill:#202121;opacity:0.15;isolation:isolate;}.cls-3{fill:#ea001b;}.cls-4{fill:#0099df;}.cls-5{fill:#6c6bbd;}.cls-6{fill:#34495e;}</style></defs><title>maestro</title><g id="Layer_2" data-name="Layer 2"><g id="Layer_1-2" data-name="Layer 1"><path class="cls-1" d="M83.34,52.55a4.93,4.93,0,0,1-4.93,4.93H4.93A4.93,4.93,0,0,1,0,52.55V4.93A4.93,4.93,0,0,1,4.93,0H78.41a4.93,4.93,0,0,1,4.93,4.93V52.55Z"/><path class="cls-2" d="M3.5,52.55V4.93A4.93,4.93,0,0,1,8.43,0H4.93A4.93,4.93,0,0,0,0,4.93V52.55a4.93,4.93,0,0,0,4.93,4.93h3.5A4.93,4.93,0,0,1,3.5,52.55Z"/><path class="cls-3" d="M36.58,22.75a13.71,13.71,0,0,1,5.09-10.67,13.74,13.74,0,1,0,0,21.35A13.71,13.71,0,0,1,36.58,22.75Z"/><path class="cls-4" d="M50.31,9a13.68,13.68,0,0,0-8.64,3.06,13.74,13.74,0,0,1,0,21.35A13.74,13.74,0,1,0,50.31,9Z"/><path class="cls-5" d="M46.76,22.75a13.71,13.71,0,0,0-5.09-10.67,13.74,13.74,0,0,0,0,21.35A13.71,13.71,0,0,0,46.76,22.75Z"/><path class="cls-6" d="M20.53,42.51A3.3,3.3,0,0,0,17.86,44a3.29,3.29,0,0,0-2.67-1.47,3,3,0,0,0-1.89.78L13,42.78a.09.09,0,0,0-.08,0h-1.7a.09.09,0,0,0-.09.09v7.81a.09.09,0,0,0,.09.09h2.1a.09.09,0,0,0,.09-.09V46.15A1.65,1.65,0,0,1,15,44.72a1.83,1.83,0,0,1,1.59,2v3.88a.09.09,0,0,0,.09.09h2a.09.09,0,0,0,.09-.09v-4c0-.92.64-1.91,1.58-1.91a1.83,1.83,0,0,1,1.59,2v3.88a.09.09,0,0,0,.09.09h2a.09.09,0,0,0,.09-.09V46.75C24,44.42,22.45,42.51,20.53,42.51Z"/><path class="cls-6" d="M33.59,42.73H31.91a.09.09,0,0,0-.09.07l-.14.6a4,4,0,0,0-2.54-.91,4.23,4.23,0,0,0,0,8.45,4,4,0,0,0,2.51-.88v.57a.09.09,0,0,0,.09.09h1.86a.09.09,0,0,0,.09-.09V42.82A.09.09,0,0,0,33.59,42.73Zm-4.17,6a1.83,1.83,0,0,1-1.34-.59,2.19,2.19,0,0,1-.56-1.44,2.15,2.15,0,0,1,.55-1.44,1.84,1.84,0,0,1,1.34-.59,1.78,1.78,0,0,1,1.32.59,2.05,2.05,0,0,1,.55,1.44,2.09,2.09,0,0,1-.55,1.44A1.78,1.78,0,0,1,29.42,48.75Z"/><path class="cls-6" d="M38.93,42.46a4.24,4.24,0,0,0,0,8.48A4,4,0,0,0,42,49.46a.09.09,0,0,0,0-.13l-1.65-1.14a.09.09,0,0,0-.12,0,1.74,1.74,0,0,1-1.23.55,1.68,1.68,0,0,1-1.28-.6,2.13,2.13,0,0,1-.37-.61h5.52a.09.09,0,0,0,.09-.07A3.61,3.61,0,0,0,43,46.7,4.18,4.18,0,0,0,38.93,42.46ZM37.32,46a2.53,2.53,0,0,1,.41-.74A1.72,1.72,0,0,1,39,44.65a1.69,1.69,0,0,1,1.27.59,2.06,2.06,0,0,1,.42.74Z"/><path class="cls-6" d="M47.92,45.91l-.5-.16c-.71-.22-1.11-.36-1-.74a.59.59,0,0,1,.66-.56,3.37,3.37,0,0,1,1.77.78.09.09,0,0,0,.07,0,.09.09,0,0,0,.06,0l1-1.65a.09.09,0,0,0,0-.12,5,5,0,0,0-3.07-.94A2.58,2.58,0,0,0,44.08,45c0,1.59,1.11,2.07,2.55,2.53.63.2,1,.37,1,.86s-.27.58-.73.58a2.67,2.67,0,0,1-1.9-1,.09.09,0,0,0-.07,0,.11.11,0,0,0-.07,0l-1.4,1.47a.09.09,0,0,0,0,.13,5,5,0,0,0,3.66,1.44A2.8,2.8,0,0,0,50,48.4,2.63,2.63,0,0,0,47.92,45.91Z"/><path class="cls-6" d="M56.55,42.73H54.89V39.92a.09.09,0,0,0-.09-.09H52.57a.09.09,0,0,0-.09.09v2.81H51a.09.09,0,0,0-.09.09v2.12A.09.09,0,0,0,51,45h1.49v5.6a.09.09,0,0,0,.09.09H54.8a.09.09,0,0,0,.09-.09V45h1.66a.09.09,0,0,0,.09-.09V42.82A.09.09,0,0,0,56.55,42.73Z"/><path class="cls-6" d="M63.81,42.75a3.92,3.92,0,0,0-1.31-.22,3.27,3.27,0,0,0-2.53,1l-.26-.73a.09.09,0,0,0-.09-.06h-1.7a.09.09,0,0,0-.09.09v7.81a.09.09,0,0,0,.09.09h2.19a.09.09,0,0,0,.09-.09v-4.3a1.9,1.9,0,0,1,1.85-1.59,2,2,0,0,1,.83.18H63a.09.09,0,0,0,.05,0l.86-2a.09.09,0,0,0-.05-.12Z"/><path class="cls-6" d="M68.39,42.49a4.22,4.22,0,1,0,4.28,4.22A4.25,4.25,0,0,0,68.39,42.49Zm0,6.27a1.73,1.73,0,0,1-1.3-.59,2,2,0,0,1-.57-1.46,2,2,0,0,1,.58-1.45,1.69,1.69,0,0,1,1.3-.6,1.77,1.77,0,0,1,1.34.61,2.09,2.09,0,0,1,.54,1.43,2.22,2.22,0,0,1-.54,1.48A1.81,1.81,0,0,1,68.41,48.77Z"/></g></g></svg>