<svg xmlns="http://www.w3.org/2000/svg" viewBox="0 0 80 76.36"><defs><style>.cls-1{fill:#03a9f4;}.cls-2{fill:#283593;}</style></defs><title>paypol</title><g id="Layer_2" data-name="Layer 2"><g id="Layer_1-2" data-name="Layer 1"><path class="cls-1" d="M60.79,12.68a6.46,6.46,0,0,0-6.61-1.41A1.82,1.82,0,0,0,53,12.73l-.51,3.5a10.79,10.79,0,0,1-10.63,9.23H34.54a1.82,1.82,0,0,0-1.76,1.38L27.33,48.65a1.82,1.82,0,0,0,1.76,2.26h9.09a1.82,1.82,0,0,0,1.76-1.38l3.29-13.17h7.09a11.79,11.79,0,0,0,11.49-9L63.16,22A9.56,9.56,0,0,0,60.79,12.68Z"/><path class="cls-2" d="M1.82,72.72A1.82,1.82,0,0,1,.05,70.47l1.82-7.24v-.08l1.82-7.23a1.82,1.82,0,0,1,1.76-1.38h4.63a4.55,4.55,0,0,1,4.41,5.65L14,62a4.55,4.55,0,0,1-4.41,3.44H5.06L3.58,71.35A1.82,1.82,0,0,1,1.82,72.72ZM6,61.82H9.62a.91.91,0,0,0,.88-.69L11,59.31a.91.91,0,0,0-.65-1.1l-.23,0H6.88Z"/><path class="cls-2" d="M21.26,72.72H18.67a5,5,0,0,1-4.89-6.26h0l.24-1a4.85,4.85,0,0,1,4.73-3.68h2.59a5,5,0,0,1,4.88,6.27L26,69A4.85,4.85,0,0,1,21.26,72.72Zm-3.95-5.38a1.4,1.4,0,0,0,1.36,1.74h2.59a1.22,1.22,0,0,0,1.19-.92l.24-1a1.4,1.4,0,0,0-1.36-1.74H18.74a1.22,1.22,0,0,0-1.19.92Z"/><path class="cls-2" d="M23.64,72.72a1.82,1.82,0,0,1-1.76-2.26l1.82-7.27a1.82,1.82,0,0,1,3.53.88L25.4,71.35A1.82,1.82,0,0,1,23.64,72.72Z"/><path class="cls-1" d="M45.45,72.72a1.82,1.82,0,0,1-1.76-2.26l1.82-7.24v-.08l1.82-7.23a1.82,1.82,0,0,1,1.76-1.38h4.63a4.55,4.55,0,0,1,4.41,5.65L57.67,62a4.55,4.55,0,0,1-4.41,3.44H48.69l-1.47,5.89A1.82,1.82,0,0,1,45.45,72.72ZM49.6,61.82h3.66a.91.91,0,0,0,.88-.69l.45-1.82a.91.91,0,0,0-.65-1.1l-.23,0H50.51Z"/><path class="cls-1" d="M64.9,72.72H62.31a5,5,0,0,1-4.89-6.26h0l.24-1a4.85,4.85,0,0,1,4.73-3.68H65a5,5,0,0,1,4.89,6.26l-.24,1A4.85,4.85,0,0,1,64.9,72.72Zm-3.95-5.38a1.4,1.4,0,0,0,1.36,1.74H64.9a1.22,1.22,0,0,0,1.19-.92l.24-1A1.4,1.4,0,0,0,65,65.46H62.37a1.22,1.22,0,0,0-1.19.92Z"/><path class="cls-1" d="M67.27,72.72a1.82,1.82,0,0,1-1.76-2.26l1.82-7.27a1.82,1.82,0,0,1,3.53.88h0L69,71.35A1.82,1.82,0,0,1,67.27,72.72Z"/><path class="cls-2" d="M34.54,70.91A1.82,1.82,0,0,1,33,70.1l-3.64-5.45a1.82,1.82,0,0,1,3-2l3.64,5.45a1.82,1.82,0,0,1-1.51,2.83Z"/><path class="cls-2" d="M30.91,76.36a1.82,1.82,0,0,1-1.4-3L38.6,62.47a1.82,1.82,0,1,1,2.79,2.33h0L32.3,75.71A1.82,1.82,0,0,1,30.91,76.36Z"/><path class="cls-1" d="M74.54,72.72a1.82,1.82,0,0,1-1.76-2.26l3.64-14.54a1.82,1.82,0,0,1,3.53.88h0L76.31,71.35A1.82,1.82,0,0,1,74.54,72.72Z"/><path class="cls-2" d="M54.78,3.15A9.19,9.19,0,0,0,47.85,0H27.27a1.82,1.82,0,0,0-1.79,1.49l-7.27,40a1.82,1.82,0,0,0,1.47,2.11l.32,0H30.91a1.82,1.82,0,0,0,1.76-1.38L36,29.09h5.85A14.44,14.44,0,0,0,56.05,16.73L57,10.51h0A9.26,9.26,0,0,0,54.78,3.15Z"/></g></g></svg>