<svg xmlns="http://www.w3.org/2000/svg" xmlns:xlink="http://www.w3.org/1999/xlink" viewBox="0 0 661.06 596"><defs><style>.cls-1{isolation:isolate;}.cls-2{fill:url(#Áåçûìÿííûé_ãðàäèåíò_7);}.cls-3{fill:url(#Áåçûìÿííûé_ãðàäèåíò_25);}.cls-11,.cls-21,.cls-29,.cls-33,.cls-35,.cls-4{mix-blend-mode:lighten;}.cls-4{fill:url(#Áåçûìÿííûé_ãðàäèåíò_14);}.cls-5{fill:#0f054c;opacity:0.7;}.cls-6{fill:url(#Áåçûìÿííûé_ãðàäèåíò_24);}.cls-7{fill:url(#Áåçûìÿííûé_ãðàäèåíò_3);}.cls-8{fill:url(#Áåçûìÿííûé_ãðàäèåíò_3-2);}.cls-9{fill:#fff;}.cls-10{fill:#24126a;}.cls-11,.cls-36,.cls-38{opacity:0.5;}.cls-11{fill:url(#Áåçûìÿííûé_ãðàäèåíò_23);}.cls-12{fill:#5761d7;}.cls-13{fill:#bcbeff;}.cls-14{opacity:0.11;}.cls-15,.cls-16,.cls-17,.cls-38,.cls-39{fill:#42e8e0;}.cls-15{opacity:0.2;}.cls-16{opacity:0.6;}.cls-18{opacity:0.3;}.cls-19{fill:url(#Áåçûìÿííûé_ãðàäèåíò_16);}.cls-20{fill:url(#Áåçûìÿííûé_ãðàäèåíò_16-2);}.cls-22{fill:url(#Áåçûìÿííûé_ãðàäèåíò_2);}.cls-23{fill:#393091;}.cls-24{fill:#453c9e;}.cls-25{fill:url(#Áåçûìÿííûé_ãðàäèåíò_16-3);}.cls-26{fill:url(#Áåçûìÿííûé_ãðàäèåíò_16-4);}.cls-27{fill:url(#Áåçûìÿííûé_ãðàäèåíò_2-2);}.cls-28{fill:url(#Áåçûìÿííûé_ãðàäèåíò_16-5);}.cls-29{fill:url(#Áåçûìÿííûé_ãðàäèåíò_2-3);}.cls-30{fill:url(#Áåçûìÿííûé_ãðàäèåíò_16-6);}.cls-31{fill:url(#Áåçûìÿííûé_ãðàäèåíò_2-4);}.cls-32{fill:url(#Áåçûìÿííûé_ãðàäèåíò_16-7);}.cls-33{fill:url(#Áåçûìÿííûé_ãðàäèåíò_2-5);}.cls-34{fill:url(#Áåçûìÿííûé_ãðàäèåíò_16-8);}.cls-35{fill:url(#Áåçûìÿííûé_ãðàäèåíò_2-6);}.cls-37{fill:url(#Degradado_sin_nombre_2);}.cls-39{opacity:0.8;}</style><radialGradient id="Áåçûìÿííûé_ãðàäèåíò_7" cx="381.03" cy="685.58" r="416.26" gradientTransform="matrix(0.97, -0.04, 0.04, 0.98, 146.69, -81.08)" gradientUnits="userSpaceOnUse"><stop offset="0" stop-color="#42e8e0"/><stop offset="1" stop-color="#180d5b"/></radialGradient><radialGradient id="Áåçûìÿííûé_ãðàäèåíò_25" cx="420.19" cy="201.85" r="369.88" gradientUnits="userSpaceOnUse"><stop offset="0" stop-color="#2b237c"/><stop offset="1" stop-color="#180d5b"/></radialGradient><linearGradient id="Áåçûìÿííûé_ãðàäèåíò_14" x1="63.33" y1="363.68" x2="606.16" y2="363.68" gradientUnits="userSpaceOnUse"><stop offset="0" stop-color="#180d5b"/><stop offset="0.1" stop-color="#1a1761"/><stop offset="0.26" stop-color="#1f3372"/><stop offset="0.48" stop-color="#28608e"/><stop offset="0.73" stop-color="#349fb4"/><stop offset="1" stop-color="#42e8e0"/></linearGradient><linearGradient id="Áåçûìÿííûé_ãðàäèåíò_24" x1="617.91" y1="-3052.93" x2="1413.85" y2="-3413.69" gradientTransform="matrix(0.5, 0.87, 0.87, -0.5, 2589.25, -2487.96)" gradientUnits="userSpaceOnUse"><stop offset="0" stop-color="#5761d7"/><stop offset="0.18" stop-color="#5c66d9"/><stop offset="0.39" stop-color="#6a73df"/><stop offset="0.61" stop-color="#8289e8"/><stop offset="0.85" stop-color="#a3a7f5"/><stop offset="1" stop-color="#bcbeff"/></linearGradient><linearGradient id="Áåçûìÿííûé_ãðàäèåíò_3" x1="-1530.27" y1="-3527.68" x2="-1530.27" y2="-3565.27" gradientTransform="translate(2515.79 -2615.29) rotate(-120.07)" gradientUnits="userSpaceOnUse"><stop offset="0" stop-color="#c0bff6"/><stop offset="0.29" stop-color="#c5c4f7"/><stop offset="0.64" stop-color="#d3d2f9"/><stop offset="1" stop-color="#e9e9fd"/></linearGradient><linearGradient id="Áåçûìÿííûé_ãðàäèåíò_3-2" x1="-1576.89" y1="-3534.41" x2="-1576.89" y2="-3984.93" gradientTransform="matrix(-0.87, -0.5, 1, -0.58, 2721.35, -2648.81)" xlink:href="#Áåçûìÿííûé_ãðàäèåíò_3"/><radialGradient id="Áåçûìÿííûé_ãðàäèåíò_23" cx="325.28" cy="10396.5" r="292.94" gradientTransform="translate(0 -5446.66) scale(1 0.55)" gradientUnits="userSpaceOnUse"><stop offset="0" stop-color="#42e8e0"/><stop offset="0.12" stop-color="#39bdc0"/><stop offset="0.28" stop-color="#2f899a"/><stop offset="0.45" stop-color="#265f7b"/><stop offset="0.6" stop-color="#1f3d62"/><stop offset="0.75" stop-color="#1a2550"/><stop offset="0.88" stop-color="#171746"/><stop offset="1" stop-color="#161242"/></radialGradient><radialGradient id="Áåçûìÿííûé_ãðàäèåíò_16" cx="762.75" cy="-431.3" r="164.43" gradientTransform="translate(-434.22 -49.15) rotate(43.78)" gradientUnits="userSpaceOnUse"><stop offset="0" stop-color="#c0bff6"/><stop offset="1" stop-color="#393091"/></radialGradient><radialGradient id="Áåçûìÿííûé_ãðàäèåíò_16-2" cx="1093.71" cy="64.69" r="162.45" gradientTransform="translate(-482.94 129.07) scale(0.78 1.06)" xlink:href="#Áåçûìÿííûé_ãðàäèåíò_16"/><linearGradient id="Áåçûìÿííûé_ãðàäèåíò_2" x1="1037.94" y1="173.38" x2="1037.94" y2="11" gradientTransform="translate(-482.94 129.07) scale(0.78 1.06)" gradientUnits="userSpaceOnUse"><stop offset="0" stop-color="#42e8e0"/><stop offset="0" stop-color="#42e6df"/><stop offset="0.14" stop-color="#40b6cb"/><stop offset="0.27" stop-color="#3e8db9"/><stop offset="0.41" stop-color="#3c6baa"/><stop offset="0.55" stop-color="#3b519f"/><stop offset="0.69" stop-color="#3a3f97"/><stop offset="0.84" stop-color="#393493"/><stop offset="1" stop-color="#393091"/></linearGradient><radialGradient id="Áåçûìÿííûé_ãðàäèåíò_16-3" cx="250.62" cy="-15.16" r="89.01" gradientTransform="matrix(1, 0, 0, 1, 0, 0)" xlink:href="#Áåçûìÿííûé_ãðàäèåíò_16"/><radialGradient id="Áåçûìÿííûé_ãðàäèåíò_16-4" cx="374.41" cy="90.17" r="126.79" gradientTransform="matrix(1, 0, 0, 1, 0, 0)" xlink:href="#Áåçûìÿííûé_ãðàäèåíò_16"/><linearGradient id="Áåçûìÿííûé_ãðàäèåíò_2-2" x1="317.15" y1="175.58" x2="338.03" y2="26.99" gradientTransform="matrix(1, 0, 0, 1, 0, 0)" xlink:href="#Áåçûìÿííûé_ãðàäèåíò_2"/><radialGradient id="Áåçûìÿííûé_ãðàäèåíò_16-5" cx="373.39" cy="88.82" r="60.21" gradientTransform="matrix(1, 0, 0, 1, 0, 0)" xlink:href="#Áåçûìÿííûé_ãðàäèåíò_16"/><linearGradient id="Áåçûìÿííûé_ãðàäèåíò_2-3" x1="361.27" y1="148.99" x2="382.43" y2="90.86" gradientTransform="matrix(1, 0, 0, 1, 0, 0)" xlink:href="#Áåçûìÿííûé_ãðàäèåíò_2"/><radialGradient id="Áåçûìÿííûé_ãðàäèåíò_16-6" cx="820.85" cy="-332.78" r="59.43" gradientTransform="translate(-444.64 354.43) rotate(11.2)" xlink:href="#Áåçûìÿííûé_ãðàäèåíò_16"/><linearGradient id="Áåçûìÿííûé_ãðàäèåíò_2-4" x1="788.55" y1="-290.36" x2="827.26" y2="-332.16" gradientTransform="translate(-444.64 354.43) rotate(11.2)" xlink:href="#Áåçûìÿííûé_ãðàäèåíò_2"/><radialGradient id="Áåçûìÿííûé_ãðàäèåíò_16-7" cx="1091.11" cy="-3302.83" r="55.06" gradientTransform="matrix(0.91, 0.11, -0.18, 1.5, -1124.53, 5116.79)" xlink:href="#Áåçûìÿííûé_ãðàäèåíò_16"/><linearGradient id="Áåçûìÿííûé_ãðàäèåíò_2-5" x1="871.06" y1="-256.5" x2="914.06" y2="-256.5" gradientTransform="matrix(0.91, 0.11, -0.14, 1.14, -414.91, 501.23)" xlink:href="#Áåçûìÿííûé_ãðàäèåíò_2"/><radialGradient id="Áåçûìÿííûé_ãðàäèåíò_16-8" cx="1621.37" cy="-6012.25" r="55.06" gradientTransform="matrix(0.44, 0.8, -1.33, 0.73, -8472.94, 3260.64)" xlink:href="#Áåçûìÿííûé_ãðàäèåíò_16"/><linearGradient id="Áåçûìÿííûé_ãðàäèåíò_2-6" x1="1128.67" y1="-2966.03" x2="1102.9" y2="-2931.61" gradientTransform="matrix(0.44, 0.8, -1.01, 0.55, -3295.24, 944.46)" xlink:href="#Áåçûìÿííûé_ãðàäèåíò_2"/><linearGradient id="Degradado_sin_nombre_2" x1="547.54" y1="436.04" x2="564.08" y2="436.04" gradientUnits="userSpaceOnUse"><stop offset="0" stop-color="#ffc71f"/><stop offset="1" stop-color="#ff056c"/></linearGradient></defs><title>repat</title><g class="cls-1"><g id="Layer_2" data-name="Layer 2"><g id="Layer_1-2" data-name="Layer 1"><path class="cls-2" d="M.29,291.79c4.06-54.94,55.44-81.12,80.76-93,61.84-29,186.24-44.53,375.74,34.82C595.34,291.64,629.87,369,633,426.6c2.47,45.24.13,94.58-69.56,140.47-63.27,41.66-183.84,49.82-271.87-54.3C179.07,379.69-8.32,408.27.29,291.79Z"/><path class="cls-3" d="M31.13,264.69c3.25-23.18,30.62-43.84,55.27-54.25,60.18-25.45,205-67.39,383.57,14.74C600.52,285.23,630.85,360.06,631.85,415a111.56,111.56,0,0,1-62.59,101.89c-65.05,31.92-195.54,70.93-276.14-31.27C190.12,355,13.3,391.75,31.13,264.69Z"/><path class="cls-4" d="M431,533.2c-42.84,0-87.07-14.79-122.56-59.79C266.05,419.68,205.9,393.79,157.58,373c-58-25-103.73-44.67-92.56-98.32l1,.21-1-.21c4.17-20.06,31.2-41.36,54.51-51.22,60-25.34,184-57.09,340.75,15,119,54.73,145,123.36,145.86,171.29a101.4,101.4,0,0,1-56.73,92.38C519.31,516.92,475.91,533.2,431,533.2Zm-162.87-337c-64.63,0-115.51,15.5-147.77,29.13-23.15,9.79-49.41,31.06-53.3,49.73-10.82,52,34.27,71.41,91.36,96C206.94,392,267.35,418,310,472.12c71.83,91.08,180.23,56.74,238.45,28.16a99.3,99.3,0,0,0,55.58-90.47c-.85-47.34-26.64-115.16-144.66-169.45C387.75,207.39,323,196.22,268.11,196.22Z"/><path class="cls-5" d="M309.48,532l-.26-28.37L606.1,331.74a198.6,198.6,0,0,0-15-20.43h0c-.91-1.1-1.85-2.2-2.8-3.3l-.28-.32c-.87-1-1.76-2-2.66-3l-.42-.46c-.87-1-1.75-1.92-2.65-2.87l-.49-.53c-.9-.95-1.82-1.91-2.75-2.86l-.48-.49c-1-1-2-2-3-3l-.31-.31c-4.57-4.47-9.47-8.93-14.75-13.38l-.7-.58c-1.05-.88-2.12-1.77-3.2-2.65l-1.07-.86-3-2.38-1.25-1c-1-.76-2-1.51-3-2.26L547,270l-3-2.21-1.42-1-3.12-2.23-1.42-1c-1.12-.78-2.26-1.56-3.41-2.34l-1.24-.85q-2.1-1.41-4.25-2.82l-.54-.36c-1.65-1.08-3.32-2.15-5-3.22l-.56-.35c-1.48-.93-3-1.85-4.48-2.78l-1.61-1c-1.19-.72-2.38-1.44-3.6-2.15-.65-.39-1.31-.77-2-1.15l-3.37-2-2.19-1.23c-1.1-.62-2.21-1.24-3.33-1.85-.76-.43-1.53-.85-2.3-1.27l-3.37-1.81-2.39-1.27L491,235.4l-2.43-1.24c-1.21-.62-2.44-1.23-3.67-1.85l-2.36-1.17c-1.37-.68-2.77-1.35-4.17-2l-2-1q-3.13-1.49-6.34-3-4.19-1.92-8.35-3.75c-.82-.37-1.65-.72-2.48-1.08-2-.85-3.92-1.7-5.87-2.53l-2.71-1.12q-2.83-1.19-5.66-2.33l-2.62-1q-2.88-1.16-5.76-2.26l-2.4-.91q-3-1.16-6-2.25l-2-.75q-3.24-1.17-6.46-2.29l-1.58-.54c-2.35-.81-4.71-1.6-7.05-2.37l-.95-.32q-4-1.3-7.95-2.53h0L78,386.69c20.59,9,43.89,17.59,68.14,27.75l1.92.8,4,1.7,2.6,1.12,3.73,1.62,2.93,1.29,3.58,1.6L168,424l3.47,1.6,3.3,1.55,3.32,1.57,3.67,1.79,3,1.47c2.14,1.06,4.29,2.15,6.43,3.26.8.41,1.61.85,2.41,1.27l4.26,2.25c.95.51,1.89,1,2.83,1.55,1.28.7,2.56,1.4,3.84,2.12l2.94,1.68,3.72,2.15,3,1.77c1.24.74,2.47,1.49,3.71,2.25l2.91,1.81q1.89,1.19,3.78,2.42c.93.59,1.86,1.19,2.78,1.8l4,2.7c.83.57,1.67,1.13,2.5,1.71,1.65,1.14,3.28,2.31,4.92,3.49.51.37,1,.72,1.54,1.1q3.19,2.32,6.35,4.76c.64.49,1.27,1,1.9,1.5q2.22,1.72,4.43,3.51c.8.65,1.59,1.32,2.39,2q2,1.6,3.88,3.25l2.52,2.2q1.84,1.62,3.68,3.28c.85.77,1.69,1.55,2.53,2.33q1.81,1.68,3.61,3.41c.83.8,1.65,1.59,2.47,2.4,1.23,1.21,2.44,2.44,3.65,3.67L280,500c1.31,1.38,2.61,2.79,3.91,4.2.64.7,1.29,1.38,1.92,2.08,1.92,2.14,3.83,4.31,5.71,6.54Q300.33,523.12,309.48,532Z"/><path class="cls-6" d="M.68,381l.07,14.44,0,0a3.6,3.6,0,0,0,2.05,2.91l206,118.59c3.1,1.78,8.5,1.55,12.07-.52L658.11,263.24c2-1.14,2.93-2.59,2.92-4l0,0L661,244.86l-22.79,12.59L453,150.82c-3.1-1.78-8.5-1.55-12.08.52L22.26,393.73c1.07-1.18,1.84-2.05,1.85-2.12S.68,381,.68,381Z"/><path class="cls-7" d="M219.31,517.12l-.09-58.68-9.4-5.41.1,64.37A14,14,0,0,0,219.31,517.12Z"/><path class="cls-8" d="M453,123.42,658.91,242c3.1,1.78,2.71,4.9-.86,7L220.81,502.12c-3.57,2.07-9,2.3-12.07.51L2.77,384.05c-3.1-1.79-2.71-4.91.86-7L440.87,123.94C444.44,121.87,449.85,121.64,453,123.42Z"/><path class="cls-9" d="M208.74,502.63,2.77,384.05C.93,383,.35,381.45.91,380a3.92,3.92,0,0,0,2,2.31l206,118.58c3.1,1.79,8.5,1.56,12.07-.51L658.16,247.19a5.87,5.87,0,0,0,2.73-2.87c.42,1.57-.54,3.33-2.84,4.66L220.81,502.12C217.24,504.19,211.83,504.42,208.74,502.63Z"/><polygon class="cls-10" points="418.69 136.78 635.87 261.82 242.99 489.28 25.81 364.23 418.69 136.78"/><polygon class="cls-10" points="418.69 136.78 635.87 261.82 242.99 489.28 25.81 364.23 418.69 136.78"/><polygon class="cls-11" points="418.69 136.78 635.87 261.82 242.99 489.28 25.81 364.23 418.69 136.78"/><path class="cls-12" d="M107.09,423l39.35,22.58c1.15.66,1.81,1.41,1.09,2.31a3.67,3.67,0,0,1-1,.86h0a6.62,6.62,0,0,1-6,.25l-39.71-22.86c-.12-.06-.29-.09-.32-.21-.33-1.26-.22-1.56,1.41-2.5l.54-.12C104.21,422.32,105.55,422.15,107.09,423Z"/><path class="cls-13" d="M100.49,425.94a3.93,3.93,0,0,1,1-.85,6.67,6.67,0,0,1,6-.25l39.7,22.86a2,2,0,0,1,.32.23,1.61,1.61,0,0,0-.6-2.6l-39.7-22.86a6.67,6.67,0,0,0-6,.25C99.61,423.66,99.34,425,100.49,425.94Z"/><path class="cls-15" d="M158.66,349.43l-14.25-8.22c-2.25-1.31-2.25-3.42,0-4.72h0a9,9,0,0,1,8.18,0l14.24,8.22c2.26,1.3,2.26,3.42,0,4.72h0A9,9,0,0,1,158.66,349.43Z"/><path class="cls-16" d="M188.13,366.45l-14.25-8.23c-2.25-1.3-2.25-3.41,0-4.72h0a9.07,9.07,0,0,1,8.18,0l14.24,8.22c2.26,1.31,2.26,3.42,0,4.73h0A9,9,0,0,1,188.13,366.45Z"/><path class="cls-17" d="M217.6,383.46l-14.25-8.22c-2.25-1.31-2.25-3.42,0-4.72h0a9,9,0,0,1,8.18,0l14.24,8.22c2.26,1.3,2.26,3.42,0,4.72h0A9,9,0,0,1,217.6,383.46Z"/><path class="cls-16" d="M247.07,400.48l-14.24-8.23c-2.26-1.3-2.26-3.42,0-4.72h0a9,9,0,0,1,8.17,0l14.25,8.22c2.25,1.31,2.25,3.42,0,4.73h0A9.07,9.07,0,0,1,247.07,400.48Z"/><path class="cls-15" d="M276.54,417.49l-14.24-8.22c-2.26-1.31-2.26-3.42,0-4.72h0a9,9,0,0,1,8.17,0l14.25,8.22c2.25,1.3,2.25,3.42,0,4.72h0A9.07,9.07,0,0,1,276.54,417.49Z"/><ellipse class="cls-15" cx="324.68" cy="312.72" rx="120.06" ry="69.32"/><ellipse class="cls-17" cx="324.68" cy="312.72" rx="68.11" ry="39.33"/><g class="cls-18"><path class="cls-17" d="M479,67.46c1.49,8.44,7.75,29.65,33.58,44.32,36.76,17,62.23,39.29,70.76,64.21a55.67,55.67,0,0,0,2.22,5.37c.91-1.51.91-1.51.92-5.17V134.36c0-24.57-1.4-30-3.14-36.84-8.53-24.91-34-47.23-70.76-64.21-29.33-9.46-36.43,18-33.58,34.15Z"/><path class="cls-17" d="M209.45,17.26C248.37,6,294.41-.38,343.56,0q9.72.08,19.26.5C406,4.46,421.32,50,395.3,70c-11.94,9.15-26.34,9-32.49,9q-9.53-.42-19.25-.51c-49.15-.4-95.19,6-134.11,17.25-39.3,9.57-41.62-30.36-27.88-54.79,4.62-8.22,13.21-19,27.88-23.68Z"/><path class="cls-17" d="M92,194.59c1.07-12.44,1.92-22.26,14.58-39.41,26.69-39.39,21.3-85.17,6.56-83.05-2.38.34-4.85,2.9-6.56,4.59C97.6,88.4,92.5,101,92,114.06c0,.69,0,1.38,0,2.06v78.47Z"/></g><rect class="cls-17" x="418.46" y="203.11" width="9.17" height="78.26" transform="translate(-59.98 176.41) rotate(-22.04)"/><circle class="cls-19" cx="251.13" cy="170.46" r="28.49" transform="translate(-52.27 162.04) rotate(-32.58)"/><path class="cls-20" d="M398.23,212.59c0,55.3-32.93,100.13-73.55,100.13s-73.55-44.83-73.55-100.13,32.93-71.86,73.55-71.86S398.23,157.3,398.23,212.59Z"/><g class="cls-21"><path class="cls-22" d="M398.23,212.59c0,55.3-32.93,100.13-73.55,100.13s-73.55-44.83-73.55-100.13,32.93-71.86,73.55-71.86S398.23,157.3,398.23,212.59Z"/></g><ellipse class="cls-23" cx="324.68" cy="170.46" rx="50.2" ry="28.98"/><path class="cls-24" d="M289.18,157.68c19.6-11.31,51.39-11.31,71,0,8.1,4.68,12.84,10.55,14.25,16.64,2-8.65-2.74-17.71-14.25-24.36-19.6-11.31-51.39-11.31-71,0-11.5,6.65-16.25,15.71-14.25,24.36C276.34,168.23,281.08,162.36,289.18,157.68Z"/><path class="cls-25" d="M266.73,101.59l9.08-15.65a50.45,50.45,0,0,0,11.78-20.29l9.2-15.85-13.23-7.59a9.67,9.67,0,0,0-1.32-.77h0c-3.76-1.78-8.76-1.3-14.25,1.86C256.29,50.06,246.81,66.47,246.81,80c0,6.75,2.37,11.49,6.2,13.71h0Z"/><ellipse class="cls-13" cx="281.61" cy="75.6" rx="29.94" ry="17.29" transform="translate(75.33 281.67) rotate(-60)"/><circle class="cls-26" cx="327.59" cy="101.28" r="75.01"/><g class="cls-21"><circle class="cls-27" cx="327.59" cy="101.28" r="75.01"/></g><path class="cls-28" d="M369.57,152l9.08-15.64a50.65,50.65,0,0,0,11.78-20.3l9.2-15.84-13.23-7.6a10.18,10.18,0,0,0-1.33-.76h0c-3.76-1.78-8.76-1.31-14.25,1.86-11.69,6.75-21.17,23.17-21.17,36.67,0,6.75,2.37,11.49,6.2,13.7h0Z"/><path class="cls-29" d="M369.57,152l9.08-15.64a50.65,50.65,0,0,0,11.78-20.3l9.2-15.84-13.23-7.6a10.18,10.18,0,0,0-1.33-.76h0c-3.76-1.78-8.76-1.31-14.25,1.86-11.69,6.75-21.17,23.17-21.17,36.67,0,6.75,2.37,11.49,6.2,13.7h0Z"/><ellipse class="cls-13" cx="384.44" cy="126.03" rx="29.94" ry="17.29" transform="translate(83.07 395.95) rotate(-60)"/><path class="cls-9" d="M364.24,138.42c0-13.5,9.48-29.91,21.18-36.66,4.05-2.34,7.83-3.21,11.05-2.79-3.42-.76-7.56,0-12,2.61-11.69,6.75-21.17,23.17-21.17,36.67,0,8.82,4.05,14.22,10.12,15C367.87,152,364.24,146.77,364.24,138.42Z"/><path class="cls-23" d="M399.58,117.29c0,9.65-6.78,21.39-15.14,26.21s-15.13.92-15.13-8.73,6.78-21.39,15.13-26.22S399.58,107.64,399.58,117.29Z"/><path class="cls-24" d="M393.14,106.71c1.56,1.85,2.48,4.61,2.48,8.15,0,9.65-6.78,21.39-15.14,26.21-3.23,1.87-6.23,2.42-8.69,1.85,2.7,3.19,7.36,3.64,12.65.58,8.36-4.82,15.14-16.56,15.14-26.21C399.58,111.38,397,107.62,393.14,106.71Z"/><ellipse class="cls-23" cx="282.79" cy="120.45" rx="19.05" ry="32.99" transform="translate(-24.57 117.92) rotate(-22.6)"/><path class="cls-17" d="M294.43,124c-.7,5.36-4.74,7-9,3.76s-7.21-10.29-6.51-15.65,4.74-7.05,9-3.76S295.13,118.68,294.43,124Z"/><path class="cls-24" d="M285,145c-11.82-9-19.85-28.32-17.93-43.07.78-6,3.09-10.34,6.36-12.75-6.18.58-10.85,5.82-12,14.9-1.91,14.75,6.12,34,17.93,43.07,7,5.35,13.76,5.91,18.51,2.41C294,149.93,289.54,148.48,285,145Z"/><path class="cls-17" d="M280.34,146.68c-11.82-9-19.84-28.32-17.93-43.07.89-6.83,3.75-11.48,7.75-13.62-4.52,1.86-7.8,6.71-8.77,14.1-1.91,14.75,6.12,34,17.93,43.07,6.35,4.85,12.49,5.75,17.12,3.27C291.94,152.28,286.23,151.19,280.34,146.68Z"/><path class="cls-30" d="M436.31,211.5A28.49,28.49,0,1,1,413.9,178,28.48,28.48,0,0,1,436.31,211.5Z"/><g class="cls-21"><path class="cls-31" d="M436.31,211.5A28.49,28.49,0,1,1,413.9,178,28.48,28.48,0,0,1,436.31,211.5Z"/></g><path class="cls-32" d="M453.8,300.35c-1.62,13.54-13.57,39.18-24.39,37.89s-16.41-29-14.8-42.56,11.7-23.46,22.52-22.17S455.41,286.82,453.8,300.35Z"/><path class="cls-33" d="M453.8,300.35c-1.62,13.54-13.57,39.18-24.39,37.89s-16.41-29-14.8-42.56,11.7-23.46,22.52-22.17S455.41,286.82,453.8,300.35Z"/><path class="cls-17" d="M175.75,213.26a4.58,4.58,0,0,1-2.13-8.64l58.81-30.78a4.58,4.58,0,0,1,4.26,8.12l-58.82,30.78A4.64,4.64,0,0,1,175.75,213.26Z"/><path class="cls-34" d="M176.78,230.35c-11.95,6.55-39.76,11.72-45,2.17s14.08-30.22,26-36.77,25.9-4.12,31.13,5.43S188.74,223.8,176.78,230.35Z"/><path class="cls-35" d="M176.78,230.35c-11.95,6.55-39.76,11.72-45,2.17s14.08-30.22,26-36.77,25.9-4.12,31.13,5.43S188.74,223.8,176.78,230.35Z"/><g class="cls-36"><path class="cls-17" d="M120.72,217.59c-1.79,14.41-9.26,23-17.11,12.25-10.07-13.76-11-27.21-11.63-35.25V116.12c0,12.28,4.07,24.12,11.63,35.25,16.6,27.45,18.56,54.54,17.11,66.22Z"/><path class="cls-17" d="M353.68,232q-9.3.25-18.75.18c-49.34-.41-95.05-7.57-133.19-19.57-38.11-10.18-40.41,29.69-27.11,54.32,9.47,17.53,22.28,22.34,27.11,24.14,38.14,12,83.85,19.17,133.19,19.58q9.45.08,18.75-.18c44.77-3.3,56.5-46.3,35.57-66.37-5.84-5.6-16.75-12.25-35.57-12.1Z"/><path class="cls-17" d="M586.47,169.41c-.22,33.93-2.21,40.11-4.73,47.93-10.49,24.74-37.69,46.6-75.76,62.93-33.33,9.83-42.54-24.8-29-50.48,9.22-17.47,23.57-25.11,29-28,38.07-16.32,65.27-38.18,75.76-62.93a40.59,40.59,0,0,1,2.88-5.31l.85-.11c.65,1.81.91,2.56,1,11.82v24.14Z"/></g><circle class="cls-37" cx="555.81" cy="436.04" r="8.27"/><circle class="cls-38" cx="429.03" cy="81.59" r="3.81"/><circle class="cls-38" cx="150.82" cy="273.39" r="3.81"/><path class="cls-39" d="M229.3,122.22a2,2,0,1,1-2-2A2,2,0,0,1,229.3,122.22Z"/></g></g></g></svg>