<svg xmlns="http://www.w3.org/2000/svg" viewBox="0 0 77.76 53.62"><defs><style>.cls-1{fill:#fff;}.cls-2{fill:#f79f1a;}.cls-3{fill:#059bbf;}.cls-4{fill:#202121;opacity:0.15;isolation:isolate;}</style></defs><title>visa</title><g id="Layer_2" data-name="Layer 2"><g id="Layer_1-2" data-name="Layer 1"><path class="cls-1" d="M77.76,49a4.6,4.6,0,0,1-4.6,4.6H4.6A4.6,4.6,0,0,1,0,49V4.6A4.6,4.6,0,0,1,4.6,0H73.16a4.6,4.6,0,0,1,4.6,4.6V49Z"/><path class="cls-2" d="M17.26,27.12l-1.83-8.76a2.18,2.18,0,0,0-2.36-1.61H4.71l-.07.4C11.15,18.73,15.47,22.54,17.26,27.12Z"/><polygon class="cls-3" points="36.65 16.92 31.25 16.92 27.87 36.75 33.27 36.75 36.65 16.92"/><path class="cls-3" d="M20.55,36.73l8.51-19.79H23.34L18,30.46l-.56-2A21.15,21.15,0,0,0,10,20.2l4.84,16.53Z"/><path class="cls-3" d="M52.08,30.27c0-2.25-1.42-4-4.54-5.38-1.89-.92-3-1.53-3-2.46s1-1.7,3.09-1.7a10,10,0,0,1,4,.76l.49.22.73-4.29A14,14,0,0,0,48,16.59c-5.34,0-9.1,2.69-9.13,6.54,0,2.85,2.69,4.44,4.74,5.39S46.44,30.1,46.42,31c0,1.33-1.68,1.93-3.23,1.93a11.34,11.34,0,0,1-5.09-1l-.69-.32L36.65,36a17,17,0,0,0,6,1.05C48.35,37,52,34.39,52.08,30.27Z"/><path class="cls-3" d="M58.5,33.78h6.92c.16.69.66,3,.66,3h5L66.72,16.94H62.55a2.69,2.69,0,0,0-2.83,1.64l-8,18.17h5.68S58.29,34.31,58.5,33.78Zm3.7-9.6c0,.05.45-1.15.72-1.89L63.29,24l1.25,5.73H60.06C60.51,28.58,62.21,24.18,62.21,24.18Z"/><path class="cls-3" d="M73.16,0H4.6A4.6,4.6,0,0,0,0,4.6V9.37H77.76V4.6A4.6,4.6,0,0,0,73.16,0Z"/><path class="cls-2" d="M73.16,53.62H4.6A4.6,4.6,0,0,1,0,49V44.26H77.76V49A4.6,4.6,0,0,1,73.16,53.62Z"/><path class="cls-4" d="M3.27,49V4.6A4.6,4.6,0,0,1,7.86,0H4.6A4.6,4.6,0,0,0,0,4.6V49a4.6,4.6,0,0,0,4.6,4.6H7.86A4.6,4.6,0,0,1,3.27,49Z"/></g></g></svg>